<svg xmlns="http://www.w3.org/2000/svg" version="1.1" xmlns:xlink="http://www.w3.org/1999/xlink" xmlns:svgjs="http://svgjs.dev/svgjs" viewBox="0 0 800 800"><defs><filter id="llleaves-blur-2" x="-100%" y="-100%" width="400%" height="400%"><feGaussianBlur in="SourceGraphic" stdDeviation="2"></feGaussianBlur></filter><filter id="llleaves-blur-3" x="-100%" y="-100%" width="400%" height="400%"><feGaussianBlur in="SourceGraphic" stdDeviation="4"></feGaussianBlur></filter><filter id="llleaves-blur-4" x="-100%" y="-100%" width="400%" height="400%"><feGaussianBlur in="SourceGraphic" stdDeviation="12"></feGaussianBlur></filter></defs><g fill="hsl(282, 100%, 75%)"><path d="M104 19H154C182 19 204 41 204 69H154C126 69 104 47 104 19Z " transform="matrix(-0.3823317735654282,-0.12422712372706739,0.12422712372706739,-0.3823317735654282,207.41309968508497,79.95357509084721)" opacity="0.62"></path><path d="M227 224H277C305 224 327 246 327 274H277C249 274 227 252 227 224Z " transform="matrix(-0.2202151030673935,-0.4141643724078172,0.4141643724078172,-0.2202151030673935,234.8726548201215,418.5570918207464)" opacity="0.72"></path><path d="M698 477H748C776 477 798 499 798 527H748C720 527 698 505 698 477Z " transform="matrix(-0.35980530019292284,-0.2248313047450926,0.2248313047450926,-0.35980530019292284,904.2690495622697,850.7960766461764)" opacity="0.65"></path><path d="M340 151H390C418 151 440 173 440 201H390C362 201 340 179 340 151Z " transform="matrix(-0.3570673539463512,-0.23188225093570355,0.23188225093570355,-0.3570673539463512,488.44499187439317,329.27793215948213)" opacity="0.65"></path><path d="M-4 332H46C74 332 96 354 96 382H46C18 382 -4 360 -4 332Z " transform="matrix(0.018010148492503902,-0.5157431738942578,0.5157431738942578,0.018010148492503902,-138.94877991090524,374.29456298731196)" opacity="0.79"></path><path d="M515 625H565C593 625 615 647 615 675H565C537 675 515 653 515 625Z " transform="matrix(-0.38486442485160216,-0.07481006587876461,0.07481006587876461,-0.38486442485160216,733.8218572199582,942.4295633750432)" filter="url(#llleaves-blur-2)" opacity="0.60"></path><path d="M83 394H133C161 394 183 416 183 444H133C105 444 83 422 83 394Z " transform="matrix(-0.044017244803356455,-0.5031194103258138,0.5031194103258138,-0.044017244803356455,-71.95273936766955,504.3581071459396)" opacity="0.78"></path><path d="M1 545H51C79 545 101 567 101 595H51C23 595 1 573 1 545Z " transform="matrix(0.017978173384124704,-0.5148275265919624,0.5148275265919624,0.017978173384124704,-243.368577000009,586.008645027239)" opacity="0.79"></path><path d="M705 202H755C783 202 805 224 805 252H755C727 252 705 230 705 202Z " transform="matrix(-0.35159860224368755,-0.2461919917150272,0.2461919917150272,-0.35159860224368755,964.5713625746729,492.68783645416266)" opacity="0.66"></path><path d="M435 313H485C513 313 535 335 535 363H485C457 363 435 341 435 313Z " transform="matrix(-0.3844338802057711,-0.10300874774429915,0.10300874774429915,-0.3844338802057711,636.6334751622259,517.8978941655357)" filter="url(#llleaves-blur-2)" opacity="0.61"></path><path d="M251 121H301C329 121 351 143 351 171H301C273 171 251 149 251 121Z " transform="matrix(-0.3134098101159212,-0.31340981011592106,0.31340981011592106,-0.3134098101159212,349.57852056796776,286.09418512181674)" opacity="0.68"></path><path d="M347 368H397C425 368 447 390 447 418H397C369 418 347 396 347 368Z " transform="matrix(-0.35662349621851036,-0.2315940063569443,0.2315940063569443,-0.35662349621851036,447.5630835004695,625.0958545375814)" opacity="0.65"></path><path d="M591 530H641C669 530 691 552 691 580H641C613 580 591 558 591 530Z " transform="matrix(-0.3840576596004628,-0.11012676175575958,0.11012676175575958,-0.3840576596004628,826.0606070294501,838.7432553636988)" filter="url(#llleaves-blur-2)" opacity="0.61"></path><path d="M452 126H502C530 126 552 148 552 176H502C474 176 452 154 452 126Z " transform="matrix(-0.3781990460589929,-0.16053597056653876,0.16053597056653876,-0.3781990460589929,667.614989566067,288.69711317931035)" opacity="0.63"></path><path d="M568 119H618C646 119 668 141 668 169H618C590 169 568 147 568 119Z " transform="matrix(-0.32176177129740874,-0.30004770587720964,0.30004770587720964,-0.32176177129740874,773.6419050154805,375.7631772989424)" opacity="0.68"></path><path d="M10 730H60C88 730 110 752 110 780H60C32 780 10 758 10 730Z " transform="matrix(0.017978173384124704,-0.5148275265919624,0.5148275265919624,0.017978173384124704,-329.7734729799792,772.3161306905037)" opacity="0.79"></path><path d="M704 647H754C782 647 804 669 804 697H754C726 697 704 675 704 647Z " transform="matrix(-0.35159860224368755,-0.2461919917150272,0.2461919917150272,-0.35159860224368755,853.6643276592422,1093.9030224608887)" opacity="0.66"></path><path d="M377 570H427C455 570 477 592 477 620H427C399 620 377 598 377 570Z " transform="matrix(-0.37224567017446214,-0.18155634429662412,0.18155634429662412,-0.37224567017446214,477.92287630800394,894.0107327684636)" opacity="0.64"></path><path d="M155 103H205C233 103 255 125 255 153H205C177 153 155 131 155 103Z " transform="matrix(-0.26846746951722594,-0.3695137712781556,0.3695137712781556,-0.26846746951722594,212.7380685274274,238.11415921022683)" opacity="0.70"></path><path d="M128 197H178C206 197 228 219 228 247H178C150 247 128 225 128 197Z " transform="matrix(-0.07795699514062154,-0.4922010961486136,0.4922010961486136,-0.07795699514062154,82.6077017900384,326.91824803567124)" opacity="0.77"></path><path d="M-16 171H34C62 171 84 193 84 221H34C6 221 -16 199 -16 171Z " transform="matrix(0.018010148492503902,-0.5157431738942578,0.5157431738942578,0.018010148492503902,-67.69800713201967,210.005278807874)" opacity="0.79"></path><path d="M629 725H679C707 725 729 747 729 775H679C651 775 629 753 629 725Z " transform="matrix(-0.3793941235964512,-0.14563575915245908,0.14563575915245908,-0.3793941235964512,827.381790557646,1133.4322731618581)" opacity="0.62"></path><path d="M688 21H738C766 21 788 43 788 71H738C710 71 688 49 688 21Z " transform="matrix(0.324704518824801,-0.463726111339797,0.463726111339797,0.324704518824801,477.0366639856662,373.29346230282937)" opacity="0.87"></path><path d="M610 210H660C688 210 710 232 710 260H660C632 260 610 238 610 210Z " transform="matrix(-0.38302220188864494,-0.12445145748811756,0.12445145748811756,-0.38302220188864494,883.548560736798,407.14817938598924)" opacity="0.62"></path><path d="M271 434H321C349 434 371 456 371 484H321C293 484 271 462 271 434Z " transform="matrix(-0.29546249009092684,-0.3398907141194525,0.3398907141194525,-0.29546249009092684,259.8336215383588,703.7222021840796)" opacity="0.69"></path><path d="M526 456H576C604 456 626 478 626 506H576C548 506 526 484 526 456Z " transform="matrix(-0.3850887941818724,-0.07485367885854358,0.07485367885854358,-0.3850887941818724,761.806525917799,709.3434290240018)" filter="url(#llleaves-blur-2)" opacity="0.60"></path><path d="M710 733H760C788 733 810 755 810 783H760C732 783 710 761 710 733Z " transform="matrix(-0.35159860224368755,-0.2461919917150272,0.2461919917150272,-0.35159860224368755,840.6014079852118,1211.6176542041358)" opacity="0.66"></path><path d="M450 25H500C528 25 550 47 550 75H500C472 75 450 53 450 25Z " transform="matrix(-0.304527416162496,-0.32656567243732515,0.32656567243732515,-0.304527416162496,635.9354244593817,228.50920702678738)" opacity="0.69"></path><path d="M225 20H275C303 20 325 42 325 70H275C247 70 225 48 225 20Z " transform="matrix(-0.3842373706291504,-0.10295609316193866,0.10295609316193866,-0.3842373706291504,376.0322527307291,90.60360729784489)" filter="url(#llleaves-blur-2)" opacity="0.61"></path><path d="M418 648H468C496 648 518 670 518 698H468C440 698 418 676 418 648Z " transform="matrix(-0.38362424519813776,-0.11728570190849072,0.11728570190849072,-0.38362424519813776,568.6028693683143,986.0688255115203)" opacity="0.62"></path><path d="M610 627H660C688 627 710 649 710 677H660C632 677 610 655 610 627Z " transform="matrix(-0.38302220188864494,-0.12445145748811756,0.12445145748811756,-0.38302220188864494,831.6523029642531,983.868437573554)" opacity="0.62"></path><path d="M442 419H492C520 419 542 441 542 469H492C464 469 442 447 442 419Z " transform="matrix(-0.3844338802057711,-0.10300874774429915,0.10300874774429915,-0.3844338802057711,635.4055850627706,665.3689467015575)" filter="url(#llleaves-blur-2)" opacity="0.61"></path><path d="M123 302H173C201 302 223 324 223 352H173C145 352 123 330 123 302Z " transform="matrix(-0.07795699514062154,-0.4922010961486136,0.4922010961486136,-0.07795699514062154,25.536801718730857,437.64272704469334)" opacity="0.77"></path><path d="M31 246H81C109 246 131 268 131 296H81C53 296 31 274 31 246Z " transform="matrix(0.0089681332429381,-0.5137840093874732,0.5137840093874732,0.0089681332429381,-58.961885336683224,310.1861406515491)" opacity="0.79"></path><path d="M98 617H148C176 617 198 639 198 667H148C120 667 98 645 98 617Z " transform="matrix(-0.044017244803356455,-0.5031194103258138,0.5031194103258138,-0.044017244803356455,-168.4881091982757,744.7207438919753)" opacity="0.78"></path><path d="M220 337H270C298 337 320 359 320 387H270C242 387 220 365 220 337Z " transform="matrix(-0.2202151030673935,-0.4141643724078172,0.4141643724078172,-0.2202151030673935,179.53057501656642,553.5422478605071)" opacity="0.72"></path><path d="M455 731H505C533 731 555 753 555 781H505C477 781 455 759 455 731Z " transform="matrix(-0.3853543453765546,-0.08896606065946065,0.08896606065946065,-0.3853543453765546,632.3456025566078,1092.255745737703)" filter="url(#llleaves-blur-2)" opacity="0.61"></path><path d="M399 226H449C477 226 499 248 499 276H449C421 276 399 254 399 226Z " transform="matrix(-0.3794816425098706,-0.15332053579698923,0.15332053579698923,-0.3794816425098706,580.9038030018877,415.0908128428257)" opacity="0.63"></path><path d="M368 476H418C446 476 468 498 468 526H418C390 526 368 504 368 476Z " transform="matrix(-0.37224567017446214,-0.18155634429662412,0.18155634429662412,-0.37224567017446214,482.63896164031644,763.3856326733944)" opacity="0.64"></path><path d="M93 506H143C171 506 193 528 193 556H143C115 556 93 534 93 506Z " transform="matrix(-0.044017244803356455,-0.5031194103258138,0.5031194103258138,-0.044017244803356455,-117.86194087612716,626.3192326671737)" opacity="0.78"></path></g><g fill="none" stroke-width="3" stroke="hsl(282, 100%, 75%)"><path d="M282 541H332C360 541 382 563 382 591H332C304 591 282 569 282 541Z " transform="matrix(-0.29546249009092684,-0.3398907141194525,0.3398907141194525,-0.29546249009092684,237.7154025185776,846.0754864791228)" opacity="0.69"></path><path d="M525 348H575C603 348 625 370 625 398H575C547 398 525 376 525 348Z " transform="matrix(-0.3850887941818724,-0.07485367885854358,0.07485367885854358,-0.3850887941818724,768.5056344403399,559.6789855735009)" filter="url(#llleaves-blur-2)" opacity="0.60"></path><path d="M702 384H752C780 384 802 406 802 434H752C724 434 702 412 702 384Z " transform="matrix(-0.35159860224368755,-0.2461919917150272,0.2461919917150272,-0.35159860224368755,915.7096242758068,737.9402060873687)" opacity="0.66"></path><path d="M702 293H752C780 293 802 315 802 343H752C724 343 702 321 702 293Z " transform="matrix(-0.35159860224368755,-0.2461919917150272,0.2461919917150272,-0.35159860224368755,938.1130955218744,614.944733283193)" opacity="0.66"></path><path d="M52 117H102C130 117 152 139 152 167H102C74 167 52 145 52 117Z " transform="matrix(-0.1723615144136309,-0.4490170963730123,0.4490170963730123,-0.1723615144136309,55.82044678522261,212.2750788767828)" opacity="0.74"></path><path d="M339 33H389C417 33 439 55 439 83H389C361 83 339 61 339 33Z " transform="matrix(-0.3761302814290873,-0.16746399070540205,0.16746399070540205,-0.3761302814290873,525.6017680150017,144.95904870728845)" opacity="0.63"></path><path d="M188 535H238C266 535 288 557 288 585H238C210 585 188 563 188 535Z " transform="matrix(-0.17211871176575283,-0.44838457385014646,0.44838457385014646,-0.17211871176575283,27.868892044167154,763.1020071651565)" opacity="0.74"></path><path d="M-3 443H47C75 443 97 465 97 493H47C19 493 -3 471 -3 443Z " transform="matrix(0.018010148492503902,-0.5157431738942578,0.5157431738942578,0.018010148492503902,-195.21428236166037,483.8111796785383)" opacity="0.79"></path><path d="M305 644H355C383 644 405 666 405 694H355C327 694 305 672 305 644Z " transform="matrix(-0.3302017578840316,-0.2870400089321934,0.2870400089321934,-0.3302017578840316,280.1918580731938,991.8041791953458)" opacity="0.67"></path><path d="M566 23H616C644 23 666 45 666 73H616C588 73 566 51 566 23Z " transform="matrix(-0.07794985196353865,-0.492155995903487,0.492155995903487,-0.07794985196353865,640.3936210061725,354.90968637079783)" opacity="0.77"></path><path d="M509 228H559C587 228 609 250 609 278H559C531 278 509 256 509 228Z " transform="matrix(-0.38486442485160216,-0.07481006587876461,0.07481006587876461,-0.38486442485160216,755.2122668247182,392.1895263136848)" filter="url(#llleaves-blur-2)" opacity="0.60"></path><path d="M309 277H359C387 277 409 299 409 327H359C331 327 309 305 309 277Z " transform="matrix(-0.3302017578840316,-0.2870400089321934,0.2870400089321934,-0.3302017578840316,390.85634838284494,504.768294087635)" opacity="0.67"></path><path d="M-1 641H49C77 641 99 663 99 691H49C21 691 -1 669 -1 641Z " transform="matrix(0.018010148492503902,-0.5157431738942578,0.5157431738942578,0.018010148492503902,-295.3674510897084,679.276656624811)" opacity="0.79"></path><path d="M201 636H251C279 636 301 658 301 686H251C223 686 201 664 201 636Z " transform="matrix(-0.20067719496702077,-0.43035363339522137,0.43035363339522137,-0.20067719496702077,16.906224262480862,901.6663878554012)" opacity="0.73"></path><path d="M123 724H173C201 724 223 746 223 774H173C145 774 123 752 123 724Z " transform="matrix(-0.07795699514062154,-0.4922010961486136,0.4922010961486136,-0.07795699514062154,-182.1720608559841,892.5405789940357)" opacity="0.77"></path><path d="M349 731H399C427 731 449 753 449 781H399C371 781 349 759 349 731Z " transform="matrix(-0.35662349621851036,-0.2315940063569443,0.2315940063569443,-0.35662349621851036,366.2077061853357,1118.0133716776145)" opacity="0.65"></path><path d="M697 561H747C775 561 797 583 797 611H747C719 611 697 589 697 561Z " transform="matrix(-0.35980530019292284,-0.2248313047450926,0.2248313047450926,-0.35980530019292284,884.0234146634891,964.794890557637)" opacity="0.65"></path><path d="M237 730H287C315 730 337 752 337 780H287C259 780 237 758 237 730Z " transform="matrix(-0.24536240970986398,-0.39266193638741237,0.39266193638741237,-0.24536240970986398,60.959249614234636,1052.9425950741347)" opacity="0.71"></path><path d="M173 431H223C251 431 273 453 273 481H223C195 481 173 459 173 431Z " transform="matrix(-0.1499865787131598,-0.4616112241027319,0.4616112241027319,-0.1499865787131598,45.95228886218885,627.33318286811)" opacity="0.75"></path><path d="M-4 32H46C74 32 96 54 96 82H46C18 82 -4 60 -4 32Z " transform="matrix(-0.36680543722958775,-0.2033235739784509,0.2033235739784509,-0.36680543722958775,51.283606395789334,87.26079432509523)" opacity="0.64"></path><path d="M471 535H521C549 535 571 557 571 585H521C493 585 471 563 471 535Z " transform="matrix(-0.3850592744391453,-0.08184687541393805,0.08184687541393805,-0.3850592744391453,675.7816317509894,818.275415776583)" filter="url(#llleaves-blur-2)" opacity="0.60"></path><path d="M607 311H657C685 311 707 333 707 361H657C629 361 607 339 607 311Z " transform="matrix(-0.38302220188864494,-0.12445145748811756,0.12445145748811756,-0.38302220188864494,866.8298969248322,546.4600674042779)" opacity="0.62"></path><path d="M545 724H595C623 724 645 746 645 774H595C567 774 545 752 545 724Z " transform="matrix(-0.3845960371351812,-0.08174841128537015,0.08174841128537015,-0.3845960371351812,762.6050820426906,1085.702736529046)" filter="url(#llleaves-blur-2)" opacity="0.60"></path><path d="M611 420H661C689 420 711 442 711 470H661C633 470 611 448 611 420Z " transform="matrix(-0.38302220188864494,-0.12445145748811756,0.12445145748811756,-0.38302220188864494,858.7967768661821,697.7072932400928)" opacity="0.62"></path><path d="M688 111H738C766 111 788 133 788 161H738C710 161 688 139 688 111Z " transform="matrix(-0.17961140309373252,-0.44455382252095205,0.44455382252095205,-0.17961140309373252,810.0938956203252,488.5078718412102)" opacity="0.74"></path></g></svg>