<svg xmlns="http://www.w3.org/2000/svg" version="1.1" xmlns:xlink="http://www.w3.org/1999/xlink" xmlns:svgjs="http://svgjs.dev/svgjs" viewBox="0 0 800 800"><defs><filter id="bbburst-blur-1" x="-100%" y="-100%" width="400%" height="400%"><feGaussianBlur in="SourceGraphic" stdDeviation="1"></feGaussianBlur></filter><filter id="bbburst-blur-2" x="-100%" y="-100%" width="400%" height="400%"><feGaussianBlur in="SourceGraphic" stdDeviation="2"></feGaussianBlur></filter><filter id="bbburst-blur-3" x="-100%" y="-100%" width="400%" height="400%"><feGaussianBlur in="SourceGraphic" stdDeviation="4"></feGaussianBlur></filter><filter id="bbburst-blur-4" x="-100%" y="-100%" width="400%" height="400%"><feGaussianBlur in="SourceGraphic" stdDeviation="12"></feGaussianBlur></filter><symbol id="bbburst-shape-1" viewBox="0 0 194 167"><path d="m97 0 96.129 166.5H.871L97 0Z"></path></symbol><symbol id="bbburst-shape-4" viewBox="0 0 149 143"><path d="M71.647 2.781c.898-2.764 4.808-2.764 5.706 0l15.445 47.534a3 3 0 0 0 2.853 2.073h49.98c2.906 0 4.115 3.719 1.764 5.427L106.96 87.193a2.999 2.999 0 0 0-1.09 3.354l15.445 47.534c.898 2.764-2.266 5.062-4.617 3.354l-40.435-29.378a3 3 0 0 0-3.526 0l-40.435 29.378c-2.351 1.708-5.515-.59-4.617-3.354L43.13 90.547a3 3 0 0 0-1.09-3.354L1.605 57.815c-2.35-1.708-1.142-5.427 1.764-5.427h49.98a3 3 0 0 0 2.853-2.073L71.647 2.781Z"></path></symbol><symbol id="bbburst-shape-8" viewBox="0 0 87 168"><path d="m12 12 31.2546 18.0749c16.4102 9.4902 20.014 31.6325 7.4603 45.8369L36.3296 92.1884c-12.5684 14.2206-8.9394 36.3916 7.5068 45.8636L75 156" stroke-width="14" stroke-linecap="round" stroke-linejoin="round"></path></symbol><symbol id="bbburst-shape-9" viewBox="0 0 182 172"><path d="M13.5809 69.845 91 13.5967l77.419 56.2483-29.571 91.012H43.1524L13.5809 69.845Z" stroke-width="22"></path></symbol><symbol id="bbburst-shape-10" viewBox="0 0 145 145"><circle cx="72.5" cy="72.5" r="61.5" fill="none" stroke-width="22"></circle></symbol><symbol id="bbburst-shape-12" viewBox="0 0 170 151"><path d="M69.3728 54.2122 85 10.0031l15.627 44.2091c1.413 3.9958 5.19 6.6672 9.428 6.6673h49.312l-39.149 26.1447c-3.803 2.5401-5.399 7.3367-3.875 11.6488l15.179 42.94-40.9683-27.36c-3.3621-2.245-7.7453-2.245-11.1074 0l-40.9682 27.36 15.1785-42.94c1.5243-4.3121-.0712-9.1087-3.8746-11.6488L10.6333 60.8795h49.3112c4.2381-.0001 8.0159-2.6715 9.4283-6.6673Z" stroke-width="12"></path></symbol><symbol id="bbburst-shape-14" viewBox="0 0 185 109"><path d="M168 16.5C168 58.1975 134.197 92 92.5 92 50.8025 92 17 58.1975 17 16.5" stroke-width="33" stroke-linecap="round"></path></symbol></defs><use xlink:href="#bbburst-shape-8" width="20.326589949745383" opacity="0.7720537980514715" transform="matrix(0.8291194948638824,0.5590714294584017,-0.5590714294584017,0.8291194948638824,686.4619623930867,-11.111974732828628)" fill="none" stroke="hsl(282, 100%, 75%)" filter="url(#bbburst-blur-1)"></use><use xlink:href="#bbburst-shape-10" width="30.795889472104424" opacity="0.5270656416718236" transform="matrix(0.9700365665607105,0.24295896677239218,-0.24295896677239218,0.9700365665607105,445.49586861391293,217.86754197093023)" fill="none" stroke="hsl(282, 100%, 75%)" filter="url(#bbburst-blur-2)"></use><use xlink:href="#bbburst-shape-8" width="29.738603582190173" opacity="0.5218943823539948" transform="matrix(0.7535404475522951,-0.6574015469275128,0.6574015469275128,0.7535404475522951,278.8036349321099,-42.932130852976655)" fill="none" stroke="hsl(282, 100%, 75%)" filter="url(#bbburst-blur-2)"></use><use xlink:href="#bbburst-shape-12" width="33.65853672174234" opacity="0.4947085604572794" transform="matrix(0.9418042159540233,0.33616189375244093,-0.33616189375244093,0.9418042159540233,726.2511892725055,-75.16113014225596)" fill="none" stroke="hsl(282, 100%, 75%)" filter="url(#bbburst-blur-2)"></use><use xlink:href="#bbburst-shape-12" width="36.85722633755266" opacity="0.17878940892247008" transform="matrix(0.9911731540300832,0.7616270601351143,-0.7616270601351143,0.9911731540300832,417.91769389120316,243.32129348879494)" fill="none" stroke="hsl(282, 100%, 75%)" filter="url(#bbburst-blur-3)"></use><use xlink:href="#bbburst-shape-1" width="41.61794316016823" opacity="0.19208474458575897" transform="matrix(1.0144172251152757,0.7303818818874303,-0.7303818818874303,1.0144172251152757,1026.7425321964315,54.107490830369386)" fill="hsl(282, 100%, 75%)" filter="url(#bbburst-blur-3)"></use><use xlink:href="#bbburst-shape-1" width="30.552694654927816" opacity="0.08977344604092508" transform="matrix(1.7300709664320166,-0.26335233264390884,0.26335233264390884,1.7300709664320166,624.6667053831209,-489.7637305507469)" fill="hsl(282, 100%, 75%)" filter="url(#bbburst-blur-4)"></use><use xlink:href="#bbburst-shape-10" width="14.289680382305871" opacity="0.7833653221912582" transform="matrix(0.9013466539913464,0.4330983829785145,-0.4330983829785145,0.9013466539913464,566.2307260979574,-61.1170309157618)" fill="none" stroke="hsl(282, 100%, 75%)"></use><use xlink:href="#bbburst-shape-9" width="14.126320128846967" opacity="0.8444456408568359" transform="matrix(0.7784168581650499,0.6277477159850544,-0.6277477159850544,0.7784168581650499,579.9529726288811,59.9921495489117)" fill="none" stroke="hsl(282, 100%, 75%)"></use><use xlink:href="#bbburst-shape-8" width="36.22202511959733" opacity="0.2155759157475564" transform="matrix(0.9885646318700686,-0.7650097833463281,0.7650097833463281,0.9885646318700686,101.5458833177538,370.50116609968086)" fill="none" stroke="hsl(282, 100%, 75%)" filter="url(#bbburst-blur-3)"></use><use xlink:href="#bbburst-shape-8" width="33.597643904091754" opacity="0.35644923546255514" transform="matrix(0.9455862576508486,-0.3253715250937964,0.3253715250937964,0.9455862576508486,-33.65286164176507,61.02354887080509)" fill="none" stroke="hsl(282, 100%, 75%)" filter="url(#bbburst-blur-2)"></use><use xlink:href="#bbburst-shape-14" width="14.198290879366555" opacity="0.7891074102807849" transform="matrix(0.9999998244855758,0.0005924768498258031,-0.0005924768498258031,0.9999998244855758,410.9407735843901,93.23191060685218)" fill="none" stroke="hsl(282, 100%, 75%)"></use><use xlink:href="#bbburst-shape-14" width="25.10541649375904" opacity="0.23006001723544411" transform="matrix(0.991119243132158,-0.7616972140510547,0.7616972140510547,0.991119243132158,240.53591413340303,-295.39162152892703)" fill="none" stroke="hsl(282, 100%, 75%)" filter="url(#bbburst-blur-3)"></use><use xlink:href="#bbburst-shape-12" width="31.155225867193554" opacity="0.45886497244957014" transform="matrix(0.9684263029346643,-0.24930001160107848,0.24930001160107848,0.9684263029346643,160.7200031803239,225.75992293182958)" fill="none" stroke="hsl(282, 100%, 75%)" filter="url(#bbburst-blur-2)"></use><use xlink:href="#bbburst-shape-14" width="20.61051374686218" opacity="0.7521122864597661" transform="matrix(0.9999999387032966,-0.0003501334074928863,0.0003501334074928863,0.9999999387032966,460.440453058048,86.16218388785023)" fill="none" stroke="hsl(282, 100%, 75%)" filter="url(#bbburst-blur-1)"></use><use xlink:href="#bbburst-shape-1" width="25.940840291465726" opacity="0.4693554337740191" transform="matrix(0.9444290437130465,0.3287153500998401,-0.3287153500998401,0.9444290437130465,296.8104019510807,-68.90701765080348)" fill="hsl(282, 100%, 75%)" filter="url(#bbburst-blur-2)"></use><use xlink:href="#bbburst-shape-12" width="33.374479819137065" opacity="0.05880716637378247" transform="matrix(1.6561599094848005,-0.5653621443069017,0.5653621443069017,1.6561599094848005,367.4699915104495,-614.2612794901352)" fill="none" stroke="hsl(282, 100%, 75%)" filter="url(#bbburst-blur-4)"></use><use xlink:href="#bbburst-shape-14" width="29.371748724672653" opacity="0.5871814178383825" transform="matrix(0.7135183074447821,0.7006365855000247,-0.7006365855000247,0.7135183074447821,845.7105914767535,163.88927438242007)" fill="none" stroke="hsl(282, 100%, 75%)" filter="url(#bbburst-blur-1)"></use><use xlink:href="#bbburst-shape-14" width="35.60303101508642" opacity="0.35089992698018624" transform="matrix(0.7356899710022325,0.6773184380826601,-0.6773184380826601,0.7356899710022325,594.9780759220032,378.9618535173862)" fill="none" stroke="hsl(282, 100%, 75%)" filter="url(#bbburst-blur-2)"></use><use xlink:href="#bbburst-shape-1" width="29.228797244723452" opacity="0.3037395029592024" transform="matrix(1.2480792290237872,-0.0692693155689344,0.0692693155689344,1.2480792290237872,491.84948116762445,183.21769171984965)" fill="hsl(282, 100%, 75%)" filter="url(#bbburst-blur-3)"></use><use xlink:href="#bbburst-shape-14" width="11.160360085075611" opacity="0.9510219604643019" transform="matrix(0.7824004000019024,-0.6227757333718642,0.6227757333718642,0.7824004000019024,131.83348264382136,106.9489940663666)" fill="none" stroke="hsl(282, 100%, 75%)"></use><use xlink:href="#bbburst-shape-12" width="13.474595184823613" opacity="0.8301431422192727" transform="matrix(0.7955833641995114,-0.605844130621885,0.605844130621885,0.7955833641995114,177.6579875110397,13.72673593137074)" fill="none" stroke="hsl(282, 100%, 75%)"></use><use xlink:href="#bbburst-shape-8" width="34.54225131990564" opacity="0.43230681929422454" transform="matrix(0.9790845893122604,-0.20345359906190497,0.20345359906190497,0.9790845893122604,453.2167457320875,217.56449271988765)" fill="none" stroke="hsl(282, 100%, 75%)" filter="url(#bbburst-blur-2)"></use><use xlink:href="#bbburst-shape-12" width="49.32139307712208" opacity="-0.0747729519186826" transform="matrix(1.6852633101711307,0.4715798716983621,-0.4715798716983621,1.6852633101711307,892.0751450543091,-624.8798441375799)" fill="none" stroke="hsl(282, 100%, 75%)" filter="url(#bbburst-blur-4)"></use><use xlink:href="#bbburst-shape-12" width="29.123451328255506" opacity="0.617093692812104" transform="matrix(0.8128751187551102,0.5824380149928965,-0.5824380149928965,0.8128751187551102,735.0601300472035,195.62695756726862)" fill="none" stroke="hsl(282, 100%, 75%)" filter="url(#bbburst-blur-1)"></use><use xlink:href="#bbburst-shape-4" width="14.135492801808413" opacity="0.9160011929531402" transform="matrix(0.8796932838316602,-0.4755415085788727,0.4755415085788727,0.8796932838316602,235.46852189408327,71.77831456937525)" fill="hsl(282, 100%, 75%)"></use><use xlink:href="#bbburst-shape-4" width="40.51516517706737" opacity="0.166943724797608" transform="matrix(1.1761860295579267,0.4231860393169417,-0.4231860393169417,1.1761860295579267,814.1428304066608,-340.39641837889366)" fill="hsl(282, 100%, 75%)" filter="url(#bbburst-blur-3)"></use><use xlink:href="#bbburst-shape-8" width="28.209506866193816" opacity="0.43042731005959656" transform="matrix(0.8573986450369943,0.5146528572627633,-0.5146528572627633,0.8573986450369943,698.50875577968,-184.14790764238657)" fill="none" stroke="hsl(282, 100%, 75%)" filter="url(#bbburst-blur-2)"></use><use xlink:href="#bbburst-shape-14" width="46.9436129799018" opacity="0.2621668251226762" transform="matrix(0.9715958626673051,0.7864486503566365,-0.7864486503566365,0.9715958626673051,388.1311833921315,127.3948255471833)" fill="none" stroke="hsl(282, 100%, 75%)" filter="url(#bbburst-blur-3)"></use><use xlink:href="#bbburst-shape-4" width="35.277992015151874" opacity="0.29408162815901073" transform="matrix(1.13326999693822,0.5274458399112145,-0.5274458399112145,1.13326999693822,443.3370499980848,-343.84742329940264)" fill="hsl(282, 100%, 75%)" filter="url(#bbburst-blur-3)"></use><use xlink:href="#bbburst-shape-14" width="44.868295049910934" opacity="-0.0830934881944978" transform="matrix(1.5430447544370494,0.8255379372289964,-0.8255379372289964,1.5430447544370494,348.51946077440704,-577.875611938796)" fill="none" stroke="hsl(282, 100%, 75%)" filter="url(#bbburst-blur-4)"></use><use xlink:href="#bbburst-shape-8" width="34.328117977351994" opacity="0.30491048082415884" transform="matrix(1.1195707171122908,0.5559329180617666,-0.5559329180617666,1.1195707171122908,869.0239100254835,107.40963471797829)" fill="none" stroke="hsl(282, 100%, 75%)" filter="url(#bbburst-blur-3)"></use><use xlink:href="#bbburst-shape-8" width="22.992426848701157" opacity="0.5484443139923142" transform="matrix(0.8304427935086143,-0.5571039101546578,0.5571039101546578,0.8304427935086143,227.7796259541505,268.31522510345025)" fill="none" stroke="hsl(282, 100%, 75%)" filter="url(#bbburst-blur-2)"></use><use xlink:href="#bbburst-shape-14" width="31.413248273791048" opacity="0.3613355400886461" transform="matrix(0.9863167518847733,-0.16486135069042293,0.16486135069042293,0.9863167518847733,515.140807862906,-201.55803295989938)" fill="none" stroke="hsl(282, 100%, 75%)" filter="url(#bbburst-blur-2)"></use><use xlink:href="#bbburst-shape-4" width="38.34862780468595" opacity="0.05161056002859088" transform="matrix(1.737209542253933,-0.21119423832548184,0.21119423832548184,1.737209542253933,520.3561578812189,63.38459712419353)" fill="hsl(282, 100%, 75%)" filter="url(#bbburst-blur-4)"></use><use xlink:href="#bbburst-shape-8" width="19.63895505308267" opacity="0.7216136907504733" transform="matrix(0.9332515836261198,-0.35922344252475996,0.35922344252475996,0.9332515836261198,178.84686296406664,135.24431295294022)" fill="none" stroke="hsl(282, 100%, 75%)" filter="url(#bbburst-blur-1)"></use><use xlink:href="#bbburst-shape-4" width="34.47614780652402" opacity="0.31042516996911373" transform="matrix(1.2424071300441355,0.13756643200830082,-0.13756643200830082,1.2424071300441355,711.3126123044168,-237.7519930702457)" fill="hsl(282, 100%, 75%)" filter="url(#bbburst-blur-3)"></use><use xlink:href="#bbburst-shape-10" width="24.41768432185902" opacity="0.595770058352177" transform="matrix(0.8857384614693355,0.4641846376970422,-0.4641846376970422,0.8857384614693355,397.1650488276817,78.93958349716644)" fill="none" stroke="hsl(282, 100%, 75%)" filter="url(#bbburst-blur-1)"></use><use xlink:href="#bbburst-shape-10" width="11.484661397316652" opacity="0.9054234768778779" transform="matrix(0.9926022238170965,0.12141180038758419,-0.12141180038758419,0.9926022238170965,483.6745852124542,-9.815789450876139)" fill="none" stroke="hsl(282, 100%, 75%)"></use><use xlink:href="#bbburst-shape-12" width="38.158169218121955" opacity="0.05453238486688117" transform="matrix(1.728762112012284,-0.2718116260773764,0.2718116260773764,1.728762112012284,25.543820772605926,-642.6035354158571)" fill="none" stroke="hsl(282, 100%, 75%)" filter="url(#bbburst-blur-4)"></use><use xlink:href="#bbburst-shape-4" width="19.425575958349224" opacity="0.7210158287469627" transform="matrix(0.9887284678980496,0.1497197941755715,-0.1497197941755715,0.9887284678980496,345.34616424944505,71.98844755104693)" fill="hsl(282, 100%, 75%)" filter="url(#bbburst-blur-1)"></use><use xlink:href="#bbburst-shape-1" width="21.72533724139458" opacity="0.7524728629349243" transform="matrix(0.999133426528823,0.04162206137102233,-0.04162206137102233,0.999133426528823,297.6300382760127,-26.677838654025095)" fill="hsl(282, 100%, 75%)" filter="url(#bbburst-blur-1)"></use><use xlink:href="#bbburst-shape-8" width="22.415021152302366" opacity="0.660972444313014" transform="matrix(0.7462349888398991,-0.6656826131356561,0.6656826131356561,0.7462349888398991,232.53399900637862,0.38590932772672204)" fill="none" stroke="hsl(282, 100%, 75%)" filter="url(#bbburst-blur-1)"></use><use xlink:href="#bbburst-shape-8" width="33.03900872027965" opacity="0.0721510561224803" transform="matrix(1.7441109966062651,-0.14344626700301655,0.14344626700301655,1.7441109966062651,96.31021063806405,61.1337145769204)" fill="none" stroke="hsl(282, 100%, 75%)" filter="url(#bbburst-blur-4)"></use><use xlink:href="#bbburst-shape-12" width="50.281814845390514" opacity="-0.07307088435527298" transform="matrix(1.7059949867319348,0.38997577520341636,-0.38997577520341636,1.7059949867319348,170.74239126587327,48.14459877604827)" fill="none" stroke="hsl(282, 100%, 75%)" filter="url(#bbburst-blur-4)"></use><use xlink:href="#bbburst-shape-9" width="13.820732490433155" opacity="0.8393401208996719" transform="matrix(0.7764871761561221,0.6301330536204964,-0.6301330536204964,0.7764871761561221,699.2654229978554,134.66308222232533)" fill="none" stroke="hsl(282, 100%, 75%)"></use><use xlink:href="#bbburst-shape-1" width="25.917783720549732" opacity="0.6661775292653688" transform="matrix(0.9861787457258905,-0.16568488608955695,0.16568488608955695,0.9861787457258905,304.823841668815,157.06037281614408)" fill="hsl(282, 100%, 75%)" filter="url(#bbburst-blur-1)"></use><use xlink:href="#bbburst-shape-12" width="44.02860074730708" opacity="0.07169616929953238" transform="matrix(1.6136721346116458,-0.6771722395210059,0.6771722395210059,1.6136721346116458,-259.58937448061624,-453.8364962883088)" fill="none" stroke="hsl(282, 100%, 75%)" filter="url(#bbburst-blur-4)"></use><use xlink:href="#bbburst-shape-9" width="30.42722701006086" opacity="0.23518069019192156" transform="matrix(1.1319931708200877,0.5301805930215511,-0.5301805930215511,1.1319931708200877,680.3091403561907,-394.5132941573316)" fill="none" stroke="hsl(282, 100%, 75%)" filter="url(#bbburst-blur-3)"></use><use xlink:href="#bbburst-shape-4" width="23.53329061833231" opacity="0.5003563304037767" transform="matrix(0.963583664415301,-0.2674070336995281,0.2674070336995281,0.963583664415301,506.4212347859403,10.29358972447801)" fill="hsl(282, 100%, 75%)" filter="url(#bbburst-blur-2)"></use><use xlink:href="#bbburst-shape-4" width="24.733051520767745" opacity="0.6656504474156251" transform="matrix(0.7732347103882362,-0.6341199276562915,0.6341199276562915,0.7732347103882362,272.5416951513479,33.66025880107793)" fill="hsl(282, 100%, 75%)" filter="url(#bbburst-blur-1)"></use><use xlink:href="#bbburst-shape-8" width="39.87185568639431" opacity="0.39404277959473344" transform="matrix(0.9994367008113274,-0.03356011131342233,0.03356011131342233,0.9994367008113274,158.1834485307472,176.66687400269223)" fill="none" stroke="hsl(282, 100%, 75%)" filter="url(#bbburst-blur-2)"></use><use xlink:href="#bbburst-shape-10" width="26.14940767224119" opacity="0.5742690041168332" transform="matrix(0.9915587801146101,-0.12965795609073272,0.12965795609073272,0.9915587801146101,300.34601906097015,-183.31513768825508)" fill="none" stroke="hsl(282, 100%, 75%)" filter="url(#bbburst-blur-1)"></use><use xlink:href="#bbburst-shape-14" width="34.780651762115376" opacity="0.4884957839785603" transform="matrix(0.9932540881178457,-0.11595825299299248,0.11595825299299248,0.9932540881178457,106.67705120718544,-10.474828897990506)" fill="none" stroke="hsl(282, 100%, 75%)" filter="url(#bbburst-blur-2)"></use><use xlink:href="#bbburst-shape-10" width="15.943070593380806" opacity="0.8857049756506938" transform="matrix(0.996214986116557,-0.08692353787546857,0.08692353787546857,0.996214986116557,336.82681564036665,49.39398937955815)" fill="none" stroke="hsl(282, 100%, 75%)"></use><use xlink:href="#bbburst-shape-4" width="19.4214376575387" opacity="0.6375878841704066" transform="matrix(0.9945436284323271,0.1043214797856183,-0.1043214797856183,0.9945436284323271,287.4794023618558,-74.2497442024831)" fill="hsl(282, 100%, 75%)" filter="url(#bbburst-blur-1)"></use><use xlink:href="#bbburst-shape-4" width="27.593140837172395" opacity="0.5895887334021611" transform="matrix(0.872046183998226,0.48942359258022317,-0.48942359258022317,0.872046183998226,667.7952719808769,-119.99024675311193)" fill="hsl(282, 100%, 75%)" filter="url(#bbburst-blur-1)"></use><use xlink:href="#bbburst-shape-10" width="21.68817950887325" opacity="0.7157387018038565" transform="matrix(0.8270011770746794,0.562200189538473,-0.562200189538473,0.8270011770746794,490.3145356425225,87.35554668346555)" fill="none" stroke="hsl(282, 100%, 75%)" filter="url(#bbburst-blur-1)"></use><use xlink:href="#bbburst-shape-9" width="16.17812231238704" opacity="0.6921662832413621" transform="matrix(0.9831403074315117,-0.1828527711123698,0.1828527711123698,0.9831403074315117,312.7187565619684,-130.27204113826195)" fill="none" stroke="hsl(282, 100%, 75%)" filter="url(#bbburst-blur-1)"></use><use xlink:href="#bbburst-shape-1" width="30.887420108840224" opacity="0.45983554003584604" transform="matrix(0.9235104811545352,0.3835731888410855,-0.3835731888410855,0.9235104811545352,311.7415984299095,110.55553477685373)" fill="hsl(282, 100%, 75%)" filter="url(#bbburst-blur-2)"></use><use xlink:href="#bbburst-shape-4" width="32.323773227145125" opacity="0.3602277098229525" transform="matrix(0.8015167827801266,-0.5979722793924441,0.5979722793924441,0.8015167827801266,-51.086539850727405,-119.0040401320961)" fill="hsl(282, 100%, 75%)" filter="url(#bbburst-blur-2)"></use><use xlink:href="#bbburst-shape-4" width="24.109349593722342" opacity="0.6507380699228432" transform="matrix(0.9919592548699216,-0.12655764172071848,0.12655764172071848,0.9919592548699216,270.7419791604405,-137.55825596716352)" fill="hsl(282, 100%, 75%)" filter="url(#bbburst-blur-1)"></use><use xlink:href="#bbburst-shape-14" width="34.0415459138596" opacity="0.2784494788452011" transform="matrix(1.1975981223235233,-0.3581322903721074,0.3581322903721074,1.1975981223235233,70.51610653757382,206.2493781025508)" fill="none" stroke="hsl(282, 100%, 75%)" filter="url(#bbburst-blur-3)"></use><use xlink:href="#bbburst-shape-12" width="16.730772191544652" opacity="0.8279475114812271" transform="matrix(0.8389250231769579,-0.5442470077892396,0.5442470077892396,0.8389250231769579,118.77891942876687,121.90590216501352)" fill="none" stroke="hsl(282, 100%, 75%)"></use><use xlink:href="#bbburst-shape-14" width="14.72992383582745" opacity="0.8946409689812502" transform="matrix(0.9883067280602913,-0.15247888795096023,0.15247888795096023,0.9883067280602913,285.62087930677444,16.845452759136037)" fill="none" stroke="hsl(282, 100%, 75%)"></use><use xlink:href="#bbburst-shape-14" width="21.733157814277963" opacity="0.17358871955716382" transform="matrix(1.2193081023924703,0.27529575267350737,-0.27529575267350737,1.2193081023924703,523.5930449137992,-461.601965696133)" fill="none" stroke="hsl(282, 100%, 75%)" filter="url(#bbburst-blur-3)"></use><use xlink:href="#bbburst-shape-10" width="24.872388416461344" opacity="0.7157114709350765" transform="matrix(0.7246312610301902,0.6891368046605815,-0.6891368046605815,0.7246312610301902,712.3592349841094,-17.905278066434164)" fill="none" stroke="hsl(282, 100%, 75%)" filter="url(#bbburst-blur-1)"></use><use xlink:href="#bbburst-shape-9" width="26.04336778181798" opacity="0.6313052428550556" transform="matrix(0.9700742589919763,-0.24280842662718283,0.24280842662718283,0.9700742589919763,126.14523558420368,-9.784625136720422)" fill="none" stroke="hsl(282, 100%, 75%)" filter="url(#bbburst-blur-1)"></use><use xlink:href="#bbburst-shape-14" width="27.430150671573298" opacity="0.4219387197153467" transform="matrix(0.9031688046729967,-0.42928558124580707,0.42928558124580707,0.9031688046729967,236.5805384179478,-214.65172435278265)" fill="none" stroke="hsl(282, 100%, 75%)" filter="url(#bbburst-blur-2)"></use><use xlink:href="#bbburst-shape-10" width="27.598060967918126" opacity="0.40873160707353084" transform="matrix(0.990691010035385,-0.1361298006869502,0.1361298006869502,0.990691010035385,366.68482191681915,269.38626435679635)" fill="none" stroke="hsl(282, 100%, 75%)" filter="url(#bbburst-blur-2)"></use><use xlink:href="#bbburst-shape-8" width="16.36105469541851" opacity="0.7540843809736738" transform="matrix(0.710124687345669,0.7040759393859556,-0.7040759393859556,0.710124687345669,590.8454573619126,39.30165597810162)" fill="none" stroke="hsl(282, 100%, 75%)" filter="url(#bbburst-blur-1)"></use><use xlink:href="#bbburst-shape-4" width="28.89237641311677" opacity="0.14883189772448158" transform="matrix(1.0721411139798973,0.6426612106809814,-0.6426612106809814,1.0721411139798973,770.4064573598438,322.59114912905306)" fill="hsl(282, 100%, 75%)" filter="url(#bbburst-blur-3)"></use><use xlink:href="#bbburst-shape-8" width="39.686847498777055" opacity="0.08977708819781816" transform="matrix(1.3289488353389876,-1.13859342745826,1.13859342745826,1.3289488353389876,272.3663098036958,96.76340969585834)" fill="none" stroke="hsl(282, 100%, 75%)" filter="url(#bbburst-blur-4)"></use><use xlink:href="#bbburst-shape-10" width="27.92211886598288" opacity="0.5794791199761422" transform="matrix(0.9690029031386361,-0.24704933456476866,0.24704933456476866,0.9690029031386361,134.37416154963933,126.82344643295255)" fill="none" stroke="hsl(282, 100%, 75%)" filter="url(#bbburst-blur-1)"></use><use xlink:href="#bbburst-shape-14" width="12.586763980938729" opacity="0.8828927410851081" transform="matrix(0.9926547584848724,-0.12098152940568964,0.12098152940568964,0.9926547584848724,357.260526897129,55.05385424319843)" fill="none" stroke="hsl(282, 100%, 75%)"></use><use xlink:href="#bbburst-shape-8" width="32.56876216011782" opacity="0.43228558986526033" transform="matrix(0.9934421658748672,0.11433574708660812,-0.11433574708660812,0.9934421658748672,366.4408290763269,-246.7909070506695)" fill="none" stroke="hsl(282, 100%, 75%)" filter="url(#bbburst-blur-2)"></use><use xlink:href="#bbburst-shape-14" width="28.000564455533624" opacity="0.15611968614001082" transform="matrix(1.0839870614718512,0.6224725299654764,-0.6224725299654764,1.0839870614718512,268.86385385664494,-147.3235349052802)" fill="none" stroke="hsl(282, 100%, 75%)" filter="url(#bbburst-blur-3)"></use><use xlink:href="#bbburst-shape-14" width="35.65978731668632" opacity="0.1774382585355384" transform="matrix(1.2022940579898203,0.34203654500999,-0.34203654500999,1.2022940579898203,148.82131008543897,-35.36862821996334)" fill="none" stroke="hsl(282, 100%, 75%)" filter="url(#bbburst-blur-3)"></use><use xlink:href="#bbburst-shape-1" width="14.196045437553428" opacity="0.9828314133535762" transform="matrix(0.7794215982406009,-0.6264997782889212,0.6264997782889212,0.7794215982406009,151.50123593973137,93.95497054896737)" fill="hsl(282, 100%, 75%)"></use><use xlink:href="#bbburst-shape-4" width="39.57506025149815" opacity="0.2645093731004574" transform="matrix(0.888821809744998,0.878917396870506,-0.878917396870506,0.888821809744998,692.83779359422,-301.29619249105883)" fill="hsl(282, 100%, 75%)" filter="url(#bbburst-blur-3)"></use><use xlink:href="#bbburst-shape-14" width="12.103018086876542" opacity="0.924936059831149" transform="matrix(0.7266213862330562,0.6870381074356442,-0.6870381074356442,0.7266213862330562,674.522927966028,71.67866439375865)" fill="none" stroke="hsl(282, 100%, 75%)"></use><use xlink:href="#bbburst-shape-14" width="18.304295620226092" opacity="0.8322089365243298" transform="matrix(0.7848534083629398,-0.6196814725171929,0.6196814725171929,0.7848534083629398,219.0847033182262,106.12403137702483)" fill="none" stroke="hsl(282, 100%, 75%)"></use><use xlink:href="#bbburst-shape-8" width="35.50950425440939" opacity="0.17214622814094527" transform="matrix(1.2206055122053674,-0.26948503404432816,0.26948503404432816,1.2206055122053674,10.493537807166547,-350.21673947901036)" fill="none" stroke="hsl(282, 100%, 75%)" filter="url(#bbburst-blur-3)"></use><use xlink:href="#bbburst-shape-14" width="30.321990504219762" opacity="0.49626223498819677" transform="matrix(0.9656160701545984,-0.2599723159476597,0.2599723159476597,0.9656160701545984,164.55547815152937,-176.52372311118546)" fill="none" stroke="hsl(282, 100%, 75%)" filter="url(#bbburst-blur-2)"></use><use xlink:href="#bbburst-shape-14" width="17.143731783842505" opacity="0.7981981860277199" transform="matrix(0.9382937330589821,-0.34583937095455103,0.34583937095455103,0.9382937330589821,338.65563625908936,-4.223828318835729)" fill="none" stroke="hsl(282, 100%, 75%)"></use><use xlink:href="#bbburst-shape-12" width="27.65765040449368" opacity="0.18084965913466577" transform="matrix(1.100866562450984,-0.5921087836515803,0.5921087836515803,1.100866562450984,510.1568146234905,-100.41329278897769)" fill="none" stroke="hsl(282, 100%, 75%)" filter="url(#bbburst-blur-3)"></use><use xlink:href="#bbburst-shape-8" width="16.088106739031403" opacity="0.9311943374593729" transform="matrix(0.9773320477482084,-0.21171223026621253,0.21171223026621253,0.9773320477482084,282.07924442447813,-6.97329030119613)" fill="none" stroke="hsl(282, 100%, 75%)"></use><use xlink:href="#bbburst-shape-9" width="23.39163733107534" opacity="0.7170826857817963" transform="matrix(0.8832557298587775,-0.46889158200125347,0.46889158200125347,0.8832557298587775,315.4368898421633,109.91719025729066)" fill="none" stroke="hsl(282, 100%, 75%)" filter="url(#bbburst-blur-1)"></use><use xlink:href="#bbburst-shape-10" width="38.668960785769094" opacity="0.1970758816782694" transform="matrix(1.2121848509120552,-0.3051358504327519,0.3051358504327519,1.2121848509120552,506.153580500424,180.3015961966505)" fill="none" stroke="hsl(282, 100%, 75%)" filter="url(#bbburst-blur-3)"></use><use xlink:href="#bbburst-shape-10" width="10.911165862508847" opacity="0.8515966236132436" transform="matrix(0.7707257766419484,-0.6371669931969683,0.6371669931969683,0.7707257766419484,97.18056439819355,44.728950060367595)" fill="none" stroke="hsl(282, 100%, 75%)"></use><use xlink:href="#bbburst-shape-14" width="14.009200290946353" opacity="0.7905459721884347" transform="matrix(0.811406012794785,0.5844829188269485,-0.5844829188269485,0.811406012794785,603.1839046332232,162.26068988324266)" fill="none" stroke="hsl(282, 100%, 75%)"></use><use xlink:href="#bbburst-shape-1" width="40.94568793789982" opacity="-0.07501657064409484" transform="matrix(1.566690142131002,0.7797320043127256,-0.7797320043127256,1.566690142131002,1028.017763858475,93.22546384957104)" fill="hsl(282, 100%, 75%)" filter="url(#bbburst-blur-4)"></use><use xlink:href="#bbburst-shape-9" width="19.038641112086843" opacity="0.7328807721578661" transform="matrix(0.8180417752944774,-0.5751588075245477,0.5751588075245477,0.8180417752944774,282.2228028807989,81.8328845086433)" fill="none" stroke="hsl(282, 100%, 75%)" filter="url(#bbburst-blur-1)"></use><use xlink:href="#bbburst-shape-14" width="20.92612527486989" opacity="0.6317103272690279" transform="matrix(0.8922717108676678,0.45149883054697393,-0.45149883054697393,0.8922717108676678,458.3968478662547,-82.97684972215251)" fill="none" stroke="hsl(282, 100%, 75%)" filter="url(#bbburst-blur-1)"></use><use xlink:href="#bbburst-shape-4" width="23.972451553192954" opacity="0.6047019865937782" transform="matrix(0.9601308147578745,0.27955110186221765,-0.27955110186221765,0.9601308147578745,404.9824749094878,162.8049669932177)" fill="hsl(282, 100%, 75%)" filter="url(#bbburst-blur-1)"></use><use xlink:href="#bbburst-shape-1" width="24.944817620999018" opacity="0.48679924195068014" transform="matrix(0.8928627289667987,0.450328932250595,-0.450328932250595,0.8928627289667987,756.3129672959182,172.323055272283)" fill="hsl(282, 100%, 75%)" filter="url(#bbburst-blur-2)"></use><use xlink:href="#bbburst-shape-10" width="32.58520236375397" opacity="0.14987375788380375" transform="matrix(0.9881305404862212,0.7655703984340096,-0.7655703984340096,0.9881305404862212,569.206527201286,-370.66815604138384)" fill="none" stroke="hsl(282, 100%, 75%)" filter="url(#bbburst-blur-3)"></use><use xlink:href="#bbburst-shape-8" width="11.333990500349138" opacity="0.8543607454656149" transform="matrix(0.9588228936816467,-0.2840046805106451,0.2840046805106451,0.9588228936816467,265.8722660787755,-45.69595717249581)" fill="none" stroke="hsl(282, 100%, 75%)"></use><use xlink:href="#bbburst-shape-8" width="40.223858129821345" opacity="0.0752192273933664" transform="matrix(1.7484926160655543,0.07261936080849359,-0.07261936080849359,1.7484926160655543,33.539924898995054,-92.68593391718764)" fill="none" stroke="hsl(282, 100%, 75%)" filter="url(#bbburst-blur-4)"></use><use xlink:href="#bbburst-shape-4" width="36.63424045945278" opacity="0.2950493355589844" transform="matrix(1.2476616200132375,-0.07642304590857335,0.07642304590857335,1.2476616200132375,32.97294513264615,-145.41737329951485)" fill="hsl(282, 100%, 75%)" filter="url(#bbburst-blur-3)"></use><use xlink:href="#bbburst-shape-9" width="37.48329255377288" opacity="0.17058069973914602" transform="matrix(0.9514249218709648,0.810734616285026,-0.810734616285026,0.9514249218709648,616.4824589004488,366.17435718073233)" fill="none" stroke="hsl(282, 100%, 75%)" filter="url(#bbburst-blur-3)"></use><use xlink:href="#bbburst-shape-8" width="34.86289644265794" opacity="0.3964109228755127" transform="matrix(0.9231124093386828,-0.3845302065182033,0.3845302065182033,0.9231124093386828,491.60595004551163,110.85878571522517)" fill="none" stroke="hsl(282, 100%, 75%)" filter="url(#bbburst-blur-2)"></use><use xlink:href="#bbburst-shape-1" width="25.651819736062706" opacity="0.6853369428972247" transform="matrix(0.9500374274803385,0.31213600623212395,-0.31213600623212395,0.9500374274803385,558.1755328442298,150.09636867345228)" fill="hsl(282, 100%, 75%)" filter="url(#bbburst-blur-1)"></use><use xlink:href="#bbburst-shape-14" width="42.65625247773677" opacity="0.2947392491334483" transform="matrix(1.1147802887978182,-0.5654775925780376,0.5654775925780376,1.1147802887978182,-127.24617518893378,-188.12565082653313)" fill="none" stroke="hsl(282, 100%, 75%)" filter="url(#bbburst-blur-3)"></use><use xlink:href="#bbburst-shape-4" width="21.59266895204912" opacity="0.6271990926025623" transform="matrix(0.7936349454827913,0.6083942581160072,-0.6083942581160072,0.7936349454827913,801.6320120125257,58.583666362249346)" fill="hsl(282, 100%, 75%)" filter="url(#bbburst-blur-1)"></use><use xlink:href="#bbburst-shape-4" width="22.761080602856012" opacity="0.576368711378239" transform="matrix(0.8339636187640872,0.5518194293225893,-0.5518194293225893,0.8339636187640872,640.8654813434732,-128.16398173449937)" fill="hsl(282, 100%, 75%)" filter="url(#bbburst-blur-1)"></use><use xlink:href="#bbburst-shape-4" width="28.836986778985864" opacity="0.3402779077111737" transform="matrix(0.9847123460024187,0.17418839120450255,-0.17418839120450255,0.9847123460024187,751.5527775014895,-18.080275726787193)" fill="hsl(282, 100%, 75%)" filter="url(#bbburst-blur-2)"></use><use xlink:href="#bbburst-shape-14" width="15.422245844211593" opacity="0.7600780640388749" transform="matrix(0.9945863497980492,-0.10391339083771974,0.10391339083771974,0.9945863497980492,303.8153786058456,-94.23348726932608)" fill="none" stroke="hsl(282, 100%, 75%)" filter="url(#bbburst-blur-1)"></use><use xlink:href="#bbburst-shape-14" width="26.118082640692045" opacity="0.4995867134840736" transform="matrix(0.8340283682114212,-0.5517215611326005,0.5517215611326005,0.8340283682114212,-7.781768293728732,-66.57283262878866)" fill="none" stroke="hsl(282, 100%, 75%)" filter="url(#bbburst-blur-2)"></use><use xlink:href="#bbburst-shape-1" width="19.262401972046536" opacity="0.8145950462491397" transform="matrix(0.8489111137315232,-0.5285356383283014,0.5285356383283014,0.8489111137315232,98.63434893658882,82.02676254874848)" fill="hsl(282, 100%, 75%)"></use><use xlink:href="#bbburst-shape-4" width="11.277868046559137" opacity="0.8684896370356351" transform="matrix(0.8434972926860517,0.5371334259113849,-0.5371334259113849,0.8434972926860517,651.1752349984611,16.9856247950176)" fill="hsl(282, 100%, 75%)"></use></svg>